<svg xmlns="http://www.w3.org/2000/svg" xmlns:xlink="http://www.w3.org/1999/xlink" width="500" zoomAndPan="magnify" viewBox="0 0 375 374.999991" height="500" preserveAspectRatio="xMidYMid meet" version="1.0"><defs><clipPath id="35043c37f8"><path d="M 107.488281 106.460938 L 256.949219 106.460938 L 256.949219 253.859375 L 107.488281 253.859375 Z M 107.488281 106.460938 " clip-rule="nonzero"/></clipPath><clipPath id="78f4a17ed1"><path d="M 157 150 L 257.398438 150 L 257.398438 211 L 157 211 Z M 157 150 " clip-rule="nonzero"/></clipPath></defs><path fill="#d9d9d9" d="M 164.753906 109.476562 C 159.785156 110.421875 154.679688 111.535156 149.550781 112.875 C 146.933594 113.539062 145.375 115.710938 146.359375 117.433594 C 148.09375 120.429688 149.964844 123.671875 152.011719 127.199219 C 152.914062 128.757812 152.273438 130.9375 150.453125 132.347656 C 147.335938 134.757812 144.246094 137.277344 141.246094 139.863281 C 139.492188 141.378906 137.164062 141.59375 135.742188 140.394531 C 132.507812 137.683594 129.484375 135.160156 126.597656 132.742188 C 124.945312 131.375 122.203125 132.3125 120.914062 134.746094 C 118.390625 139.484375 116.160156 144.398438 114.269531 149.277344 C 113.328125 151.773438 113.9375 154.546875 115.605469 155.152344 C 118.582031 156.226562 121.957031 157.4375 125.699219 158.792969 C 127.359375 159.382812 128.328125 161.492188 127.929688 163.757812 C 127.238281 167.648438 126.613281 171.546875 126.035156 175.433594 C 125.699219 177.703125 124.152344 179.347656 122.46875 179.355469 C 118.671875 179.367188 115.359375 179.390625 112.65625 179.410156 C 111.125 179.441406 110.183594 181.789062 110.398438 184.347656 C 110.851562 189.382812 111.335938 194.503906 111.90625 199.683594 C 112.179688 202.328125 113.855469 204.269531 115.554688 203.648438 C 118.515625 202.554688 121.886719 201.308594 125.636719 199.925781 C 127.28125 199.3125 129.308594 200.328125 130.371094 202.371094 C 132.183594 205.871094 134.097656 209.375 136.089844 212.816406 C 137.257812 214.824219 137.046875 217.1875 135.601562 218.402344 C 132.359375 221.136719 129.328125 223.695312 126.445312 226.136719 C 124.8125 227.527344 125.121094 230.523438 127.164062 232.355469 C 131.164062 235.9375 135.476562 239.273438 139.90625 242.207031 C 142.171875 243.695312 145.140625 243.441406 146.140625 241.722656 C 147.890625 238.660156 149.789062 235.347656 151.859375 231.75 C 152.765625 230.15625 155.039062 229.527344 157.21875 230.3125 C 160.945312 231.644531 164.703125 232.90625 168.445312 234.097656 C 170.632812 234.796875 171.984375 236.59375 171.679688 238.273438 C 171.011719 242.074219 170.429688 245.410156 169.945312 248.179688 C 169.691406 249.769531 171.863281 250.972656 174.4375 250.972656 C 179.507812 250.972656 184.582031 250.972656 189.652344 250.972656 C 192.234375 250.972656 194.40625 249.769531 194.148438 248.179688 C 193.664062 245.410156 193.078125 242.074219 192.410156 238.273438 C 192.113281 236.59375 193.464844 234.796875 195.652344 234.097656 C 199.386719 232.90625 203.144531 231.644531 206.878906 230.3125 C 209.054688 229.527344 211.324219 230.15625 212.238281 231.75 C 214.300781 235.347656 216.199219 238.660156 217.957031 241.722656 C 218.949219 243.441406 221.917969 243.695312 224.191406 242.207031 C 228.613281 239.273438 232.933594 235.945312 236.929688 232.355469 C 238.96875 230.523438 239.277344 227.527344 237.652344 226.136719 C 234.761719 223.695312 231.730469 221.136719 228.488281 218.402344 C 227.054688 217.1875 226.835938 214.824219 228.003906 212.816406 C 229.992188 209.375 231.914062 205.871094 233.722656 202.371094 C 234.789062 200.328125 236.808594 199.3125 238.460938 199.925781 C 242.203125 201.308594 245.574219 202.554688 248.535156 203.648438 C 250.238281 204.269531 251.910156 202.328125 252.1875 199.683594 C 252.753906 194.503906 253.242188 189.382812 253.691406 184.347656 C 253.910156 181.789062 252.964844 179.441406 251.433594 179.410156 C 248.738281 179.390625 245.425781 179.367188 241.621094 179.355469 C 239.9375 179.347656 238.390625 177.703125 238.0625 175.433594 C 237.484375 171.546875 236.851562 167.648438 236.167969 163.757812 C 235.761719 161.492188 236.730469 159.382812 238.390625 158.792969 C 242.140625 157.4375 245.511719 156.226562 248.484375 155.152344 C 250.160156 154.546875 250.765625 151.773438 249.820312 149.277344 C 247.929688 144.398438 245.707031 139.484375 243.175781 134.746094 C 241.886719 132.3125 239.144531 131.375 237.5 132.742188 C 234.609375 135.160156 231.582031 137.683594 228.355469 140.394531 C 226.925781 141.59375 224.597656 141.378906 222.847656 139.863281 C 219.84375 137.277344 216.753906 134.757812 213.640625 132.347656 C 211.816406 130.9375 211.175781 128.757812 212.085938 127.199219 C 214.125 123.671875 216.003906 120.429688 217.734375 117.433594 C 218.71875 115.710938 217.164062 113.539062 214.539062 112.875 C 209.417969 111.535156 204.3125 110.421875 199.339844 109.476562 C 196.804688 109.019531 194.316406 109.765625 194.035156 111.253906 C 193.5625 113.90625 192.992188 117.128906 192.339844 120.832031 C 192.058594 122.46875 190.179688 123.722656 187.902344 123.695312 C 184.003906 123.652344 180.09375 123.652344 176.191406 123.695312 C 173.910156 123.722656 172.03125 122.46875 171.75 120.832031 C 171.097656 117.128906 170.527344 113.90625 170.054688 111.253906 C 169.773438 109.765625 167.285156 109.019531 164.753906 109.476562 " fill-opacity="1" fill-rule="nonzero"/><g clip-path="url(#35043c37f8)"><path fill="#a6a6a6" d="M 148.925781 116.488281 Z M 189.652344 253.859375 L 174.4375 253.859375 C 170.15625 253.859375 167.046875 251.582031 167.046875 248.441406 C 167.046875 248.203125 167.066406 247.960938 167.101562 247.714844 L 168.839844 237.773438 C 168.816406 237.667969 168.460938 237.136719 167.574219 236.855469 C 163.703125 235.621094 159.890625 234.339844 156.246094 233.035156 C 155.375 232.722656 154.476562 232.976562 154.355469 233.1875 L 148.636719 243.160156 C 147.574219 244.992188 145.507812 246.074219 143.09375 246.074219 C 141.441406 246.074219 139.746094 245.558594 138.324219 244.625 C 133.726562 241.574219 129.328125 238.175781 125.242188 234.507812 C 123.53125 232.976562 122.519531 230.769531 122.519531 228.605469 C 122.519531 226.722656 123.246094 225.070312 124.574219 223.9375 L 133.746094 216.1875 C 133.878906 216.074219 133.957031 215.804688 133.957031 215.503906 C 133.957031 215.109375 133.832031 214.671875 133.597656 214.269531 C 131.628906 210.863281 129.679688 207.308594 127.808594 203.703125 C 127.394531 202.90625 126.832031 202.640625 126.632812 202.640625 C 122.886719 204.015625 119.515625 205.261719 116.554688 206.363281 C 116.007812 206.5625 115.464844 206.660156 114.914062 206.660156 C 111.914062 206.660156 109.4375 203.851562 109.035156 199.980469 C 108.542969 195.46875 108.078125 190.722656 107.53125 184.609375 C 107.503906 184.277344 107.488281 183.9375 107.488281 183.613281 C 107.488281 179.496094 109.589844 176.582031 112.601562 176.519531 C 115.339844 176.5 118.652344 176.476562 122.457031 176.464844 C 122.554688 176.414062 123.039062 175.957031 123.179688 175.003906 C 123.773438 171.011719 124.417969 167.054688 125.085938 163.253906 C 125.121094 163.066406 125.136719 162.894531 125.136719 162.734375 C 125.136719 161.957031 124.820312 161.554688 124.726562 161.511719 C 120.980469 160.160156 117.609375 158.945312 114.628906 157.875 C 112.347656 157.035156 110.941406 154.667969 110.941406 151.675781 C 110.941406 150.527344 111.160156 149.347656 111.574219 148.25 C 113.578125 143.085938 115.867188 138.09375 118.375 133.375 C 119.714844 130.859375 122.230469 129.214844 124.796875 129.214844 C 126.15625 129.214844 127.414062 129.667969 128.433594 130.511719 L 137.585938 138.179688 C 137.867188 138.410156 138.761719 138.199219 139.367188 137.671875 C 139.867188 137.242188 140.371094 136.8125 140.878906 136.378906 C 142.09375 135.351562 143.910156 135.507812 144.9375 136.726562 C 145.964844 137.9375 145.816406 139.765625 144.601562 140.796875 C 144.105469 141.210938 143.621094 141.628906 143.136719 142.050781 C 140.363281 144.441406 136.339844 144.671875 133.886719 142.609375 L 124.75 134.964844 C 124.550781 135 123.90625 135.265625 123.46875 136.089844 C 121.054688 140.613281 118.867188 145.398438 116.957031 150.324219 C 116.792969 150.746094 116.710938 151.226562 116.710938 151.675781 C 116.710938 152.097656 116.78125 152.382812 116.84375 152.53125 C 119.742188 153.574219 123.03125 154.757812 126.675781 156.070312 C 129.238281 156.984375 130.90625 159.601562 130.90625 162.734375 C 130.90625 163.25 130.855469 163.769531 130.761719 164.277344 C 130.101562 168.015625 129.46875 171.914062 128.886719 175.855469 C 128.335938 179.550781 125.644531 182.238281 122.476562 182.238281 C 119.03125 182.261719 115.984375 182.273438 113.4375 182.296875 C 113.339844 182.585938 113.253906 183.035156 113.253906 183.613281 C 113.253906 183.769531 113.253906 183.925781 113.269531 184.085938 C 113.820312 190.164062 114.277344 194.882812 114.769531 199.367188 C 114.839844 199.980469 115.007812 200.441406 115.160156 200.714844 C 117.96875 199.679688 121.132812 198.5 124.636719 197.21875 C 125.261719 196.976562 125.9375 196.859375 126.632812 196.859375 C 129.175781 196.859375 131.585938 198.457031 132.921875 201.039062 C 134.75 204.566406 136.65625 208.035156 138.585938 211.363281 C 139.332031 212.652344 139.726562 214.085938 139.726562 215.503906 C 139.726562 217.539062 138.902344 219.402344 137.453125 220.617188 L 128.308594 228.34375 C 128.308594 228.335938 128.28125 228.40625 128.28125 228.605469 C 128.28125 229.007812 128.492188 229.671875 129.089844 230.207031 C 132.964844 233.683594 137.136719 236.914062 141.496094 239.796875 C 141.96875 240.105469 142.558594 240.289062 143.09375 240.289062 C 143.472656 240.289062 143.683594 240.199219 143.726562 240.171875 L 149.355469 230.3125 C 150.507812 228.292969 152.738281 227.089844 155.328125 227.089844 C 156.289062 227.089844 157.253906 227.257812 158.1875 227.589844 C 161.761719 228.875 165.503906 230.136719 169.316406 231.339844 C 172.476562 232.351562 174.605469 234.945312 174.605469 237.800781 C 174.605469 238.117188 174.578125 238.441406 174.523438 238.761719 L 172.933594 247.84375 C 173.269531 247.960938 173.789062 248.082031 174.4375 248.082031 L 189.652344 248.082031 C 190.308594 248.082031 190.820312 247.960938 191.15625 247.84375 L 189.574219 238.765625 C 189.519531 238.457031 189.492188 238.132812 189.492188 237.800781 C 189.492188 234.945312 191.617188 232.351562 194.773438 231.339844 C 198.585938 230.136719 202.328125 228.875 205.910156 227.589844 C 206.835938 227.257812 207.800781 227.089844 208.765625 227.089844 C 211.351562 227.089844 213.582031 228.292969 214.734375 230.320312 L 220.453125 240.28125 C 220.40625 240.199219 220.625 240.289062 220.996094 240.289062 C 221.53125 240.289062 222.121094 240.105469 222.613281 239.789062 C 226.953125 236.914062 231.125 233.683594 235.007812 230.199219 C 235.597656 229.671875 235.808594 229.007812 235.808594 228.605469 C 235.808594 228.402344 235.761719 228.324219 235.761719 228.324219 L 226.632812 220.609375 C 225.195312 219.402344 224.367188 217.539062 224.367188 215.503906 C 224.367188 214.078125 224.761719 212.652344 225.503906 211.363281 C 227.441406 208.027344 229.347656 204.558594 231.167969 201.039062 C 232.503906 198.457031 234.917969 196.859375 237.457031 196.859375 C 238.152344 196.859375 238.828125 196.976562 239.46875 197.21875 C 242.949219 198.5 246.113281 199.671875 248.929688 200.714844 C 249.082031 200.441406 249.257812 199.988281 249.324219 199.382812 C 249.816406 194.902344 250.285156 190.050781 250.8125 184.09375 C 250.828125 183.9375 250.835938 183.777344 250.835938 183.613281 C 250.835938 183.035156 250.75 182.585938 250.652344 182.296875 C 248.128906 182.273438 245.074219 182.261719 241.605469 182.238281 C 238.449219 182.238281 235.753906 179.550781 235.207031 175.855469 C 234.621094 171.90625 233.988281 168.007812 233.328125 164.265625 C 233.234375 163.757812 233.195312 163.242188 233.195312 162.734375 C 233.195312 159.601562 234.855469 156.984375 237.421875 156.070312 C 241.050781 154.757812 244.335938 153.574219 247.246094 152.53125 C 247.3125 152.382812 247.386719 152.097656 247.386719 151.675781 C 247.386719 151.226562 247.296875 150.746094 247.128906 150.300781 C 245.222656 145.398438 243.042969 140.617188 240.628906 136.105469 C 240.191406 135.265625 239.539062 135 239.292969 135 L 230.195312 142.613281 C 227.757812 144.671875 223.726562 144.433594 220.960938 142.058594 C 218.027344 139.519531 214.976562 137.023438 211.878906 134.640625 C 209.945312 133.144531 208.792969 130.945312 208.792969 128.75 C 208.792969 127.6875 209.066406 126.648438 209.585938 125.746094 L 215.046875 116.316406 C 214.863281 116.128906 214.484375 115.84375 213.828125 115.675781 C 209.101562 114.433594 204.050781 113.3125 198.804688 112.320312 C 198.039062 112.179688 197.144531 112.261719 196.765625 112.375 L 195.179688 121.332031 C 194.652344 124.371094 191.621094 126.585938 187.980469 126.585938 C 187.949219 126.585938 187.84375 126.585938 187.816406 126.585938 C 184.046875 126.542969 180.101562 126.542969 176.226562 126.585938 C 172.46875 126.585938 169.4375 124.371094 168.910156 121.324219 L 167.328125 112.375 C 166.945312 112.261719 166.082031 112.179688 165.257812 112.328125 C 160.039062 113.3125 154.988281 114.441406 150.28125 115.667969 C 149.613281 115.839844 149.226562 116.128906 149.046875 116.316406 L 154.503906 125.753906 C 155.023438 126.640625 155.296875 127.6875 155.296875 128.75 C 155.296875 130.1875 154.828125 131.613281 153.917969 132.875 C 153 134.167969 151.191406 134.46875 149.894531 133.539062 C 148.601562 132.609375 148.304688 130.800781 149.234375 129.503906 C 149.515625 129.117188 149.539062 128.835938 149.539062 128.75 L 143.867188 118.886719 C 143.410156 118.09375 143.179688 117.214844 143.179688 116.332031 C 143.179688 113.492188 145.507812 110.917969 148.847656 110.070312 C 153.660156 108.816406 158.835938 107.660156 164.21875 106.636719 C 164.898438 106.515625 165.566406 106.453125 166.230469 106.453125 C 169.78125 106.453125 172.398438 108.132812 172.890625 110.71875 L 174.59375 120.324219 C 174.648438 120.402344 175.175781 120.808594 176.113281 120.808594 C 180.128906 120.761719 184.019531 120.761719 187.929688 120.808594 L 187.9375 120.808594 C 188.914062 120.808594 189.449219 120.402344 189.519531 120.265625 L 191.199219 110.753906 C 191.699219 108.125 194.316406 106.453125 197.867188 106.453125 C 198.523438 106.453125 199.191406 106.515625 199.851562 106.636719 C 205.246094 107.660156 210.429688 108.816406 215.265625 110.078125 C 218.582031 110.917969 220.914062 113.492188 220.914062 116.332031 C 220.914062 117.214844 220.679688 118.09375 220.238281 118.871094 L 214.574219 128.652344 C 214.558594 129.066406 214.820312 129.609375 215.398438 130.0625 C 218.578125 132.507812 221.714844 135.070312 224.726562 137.679688 C 225.160156 138.050781 225.679688 138.277344 226.117188 138.277344 C 226.285156 138.277344 226.425781 138.242188 226.496094 138.179688 L 235.648438 130.519531 C 236.675781 129.667969 237.941406 129.214844 239.292969 129.214844 C 241.859375 129.214844 244.386719 130.859375 245.722656 133.390625 C 248.234375 138.09375 250.519531 143.09375 252.507812 148.226562 C 252.929688 149.347656 253.148438 150.535156 253.148438 151.675781 C 253.148438 154.667969 251.742188 157.035156 249.484375 157.867188 C 246.488281 158.945312 243.113281 160.160156 239.371094 161.507812 C 239.277344 161.554688 238.960938 161.957031 238.960938 162.734375 C 238.960938 162.902344 238.976562 163.070312 239.003906 163.25 C 239.679688 167.054688 240.320312 171.003906 240.910156 175.003906 C 241.050781 175.957031 241.535156 176.414062 241.691406 176.46875 C 245.441406 176.476562 248.753906 176.5 251.453125 176.519531 C 254.5 176.582031 256.601562 179.496094 256.601562 183.613281 C 256.601562 183.9375 256.589844 184.261719 256.5625 184.59375 C 256.027344 190.609375 255.546875 195.503906 255.054688 200.003906 C 254.65625 203.851562 252.179688 206.660156 249.175781 206.660156 C 248.625 206.660156 248.085938 206.5625 247.558594 206.371094 C 244.574219 205.261719 241.207031 204.015625 237.464844 202.640625 C 237.257812 202.640625 236.695312 202.90625 236.28125 203.703125 C 234.417969 207.300781 232.46875 210.855469 230.492188 214.269531 C 230.261719 214.671875 230.132812 215.109375 230.132812 215.503906 C 230.132812 215.804688 230.21875 216.074219 230.335938 216.179688 L 239.511719 223.929688 C 240.847656 225.066406 241.578125 226.722656 241.578125 228.605469 C 241.578125 230.769531 240.558594 232.976562 238.847656 234.507812 C 234.769531 238.175781 230.367188 241.574219 225.78125 244.621094 C 224.34375 245.558594 222.648438 246.074219 220.996094 246.074219 C 218.582031 246.074219 216.515625 244.992188 215.460938 243.175781 L 209.734375 233.195312 C 209.671875 233.082031 209.363281 232.863281 208.765625 232.863281 C 208.460938 232.863281 208.160156 232.921875 207.851562 233.035156 C 204.207031 234.339844 200.394531 235.621094 196.519531 236.855469 C 195.640625 237.136719 195.28125 237.667969 195.25 237.816406 L 196.980469 247.679688 C 197.03125 247.96875 197.046875 248.203125 197.046875 248.433594 C 197.046875 251.582031 193.9375 253.859375 189.652344 253.859375 " fill-opacity="1" fill-rule="nonzero"/></g><path fill="#ffffff" d="M 223.421875 179.433594 C 223.421875 202.335938 204.894531 220.90625 182.050781 220.90625 C 159.195312 220.90625 140.667969 202.335938 140.667969 179.433594 C 140.667969 156.519531 159.195312 137.953125 182.050781 137.953125 C 204.894531 137.953125 223.421875 156.519531 223.421875 179.433594 " fill-opacity="1" fill-rule="nonzero"/><path fill="#a6a6a6" d="M 182.050781 140.84375 C 160.820312 140.84375 143.550781 158.15625 143.550781 179.433594 C 143.550781 200.707031 160.820312 218.011719 182.050781 218.011719 C 203.269531 218.011719 220.539062 200.707031 220.539062 179.433594 C 220.539062 158.15625 203.269531 140.84375 182.050781 140.84375 Z M 182.050781 223.796875 C 157.640625 223.796875 137.785156 203.894531 137.785156 179.433594 C 137.785156 154.96875 157.640625 135.0625 182.050781 135.0625 C 206.449219 135.0625 226.308594 154.96875 226.308594 179.433594 C 226.308594 203.894531 206.449219 223.796875 182.050781 223.796875 " fill-opacity="1" fill-rule="nonzero"/><path fill="#ffffff" d="M 165.617188 153.039062 L 249.210938 153.039062 C 252.144531 153.039062 254.519531 155.421875 254.519531 158.363281 L 254.519531 201.957031 C 254.519531 204.898438 252.144531 207.28125 249.210938 207.28125 L 165.617188 207.28125 C 162.683594 207.28125 160.308594 204.898438 160.308594 201.957031 L 160.308594 158.363281 C 160.308594 157.058594 160.769531 155.863281 161.542969 154.941406 C 162.523438 153.777344 163.976562 153.039062 165.617188 153.039062 " fill-opacity="1" fill-rule="nonzero"/><g clip-path="url(#78f4a17ed1)"><path fill="#6ac35d" d="M 168.03125 155.929688 C 165.363281 155.929688 163.183594 158.109375 163.183594 160.789062 L 163.183594 199.53125 C 163.183594 202.210938 165.363281 204.390625 168.03125 204.390625 L 246.789062 204.390625 C 249.464844 204.390625 251.636719 202.210938 251.636719 199.53125 L 251.636719 160.789062 C 251.636719 158.109375 249.464844 155.929688 246.789062 155.929688 Z M 246.789062 210.171875 L 168.03125 210.171875 C 162.179688 210.171875 157.421875 205.398438 157.421875 199.53125 L 157.421875 160.789062 C 157.421875 154.921875 162.179688 150.144531 168.03125 150.144531 L 246.789062 150.144531 C 252.644531 150.144531 257.40625 154.921875 257.40625 160.789062 L 257.40625 199.53125 C 257.40625 205.398438 252.644531 210.171875 246.789062 210.171875 " fill-opacity="1" fill-rule="nonzero"/></g><path fill="#6ac35d" d="M 225.535156 194.671875 C 223.9375 194.671875 222.648438 193.375 222.648438 191.78125 L 222.648438 180.160156 C 222.648438 178.566406 223.9375 177.265625 225.535156 177.265625 L 231.328125 177.265625 C 232.917969 177.265625 234.214844 178.566406 234.214844 180.160156 C 234.214844 181.753906 232.917969 183.050781 231.328125 183.050781 L 228.417969 183.050781 L 228.417969 191.78125 C 228.417969 193.375 227.125 194.671875 225.535156 194.671875 " fill-opacity="1" fill-rule="nonzero"/><path fill="#6ac35d" d="M 228.417969 177.265625 L 231.34375 177.265625 C 232.941406 177.265625 234.25 175.960938 234.25 174.363281 C 234.25 172.726562 232.941406 171.421875 231.34375 171.421875 L 228.417969 171.421875 Z M 231.34375 183.050781 L 225.535156 183.050781 C 223.9375 183.050781 222.648438 181.753906 222.648438 180.160156 L 222.648438 168.539062 C 222.648438 166.9375 223.9375 165.644531 225.535156 165.644531 L 231.34375 165.644531 C 236.125 165.644531 240.007812 169.539062 240.007812 174.328125 C 240.007812 179.148438 236.125 183.050781 231.34375 183.050781 " fill-opacity="1" fill-rule="nonzero"/><path fill="#6ac35d" d="M 190.742188 194.671875 L 179.144531 194.671875 C 177.554688 194.671875 176.265625 193.375 176.265625 191.78125 L 176.265625 168.539062 C 176.265625 166.9375 177.554688 165.644531 179.144531 165.644531 L 190.742188 165.644531 C 192.332031 165.644531 193.628906 166.9375 193.628906 168.539062 C 193.628906 170.132812 192.332031 171.421875 190.742188 171.421875 L 182.027344 171.421875 L 182.027344 188.890625 L 190.742188 188.890625 C 192.332031 188.890625 193.628906 190.1875 193.628906 191.78125 C 193.628906 193.375 192.332031 194.671875 190.742188 194.671875 " fill-opacity="1" fill-rule="nonzero"/><path fill="#6ac35d" d="M 186.191406 183.050781 L 179.144531 183.050781 C 177.554688 183.050781 176.265625 181.753906 176.265625 180.160156 C 176.265625 178.566406 177.554688 177.265625 179.144531 177.265625 L 186.191406 177.265625 C 187.78125 177.265625 189.074219 178.566406 189.074219 180.160156 C 189.074219 181.753906 187.78125 183.050781 186.191406 183.050781 " fill-opacity="1" fill-rule="nonzero"/><path fill="#6ac35d" d="M 202.335938 194.671875 C 200.746094 194.671875 199.457031 193.375 199.457031 191.78125 L 199.457031 180.160156 C 199.457031 178.566406 200.746094 177.265625 202.335938 177.265625 L 208.136719 177.265625 C 209.726562 177.265625 211.023438 178.566406 211.023438 180.160156 C 211.023438 181.753906 209.726562 183.050781 208.136719 183.050781 L 205.21875 183.050781 L 205.21875 191.78125 C 205.21875 193.375 203.933594 194.671875 202.335938 194.671875 " fill-opacity="1" fill-rule="nonzero"/><path fill="#6ac35d" d="M 205.21875 177.265625 L 208.152344 177.265625 C 209.75 177.265625 211.058594 175.960938 211.058594 174.363281 C 211.058594 172.726562 209.75 171.421875 208.152344 171.421875 L 205.21875 171.421875 Z M 208.152344 183.050781 L 202.335938 183.050781 C 200.746094 183.050781 199.457031 181.753906 199.457031 180.160156 L 199.457031 168.539062 C 199.457031 166.9375 200.746094 165.644531 202.335938 165.644531 L 208.152344 165.644531 C 212.929688 165.644531 216.816406 169.539062 216.816406 174.328125 C 216.816406 179.148438 212.929688 183.050781 208.152344 183.050781 " fill-opacity="1" fill-rule="nonzero"/><path fill="#6ac35d" d="M 213.933594 194.671875 C 212.800781 194.671875 211.726562 193.996094 211.269531 192.878906 L 206.511719 181.25 C 205.910156 179.777344 206.613281 178.085938 208.089844 177.484375 C 209.558594 176.878906 211.246094 177.585938 211.851562 179.058594 L 216.601562 190.6875 C 217.207031 192.160156 216.5 193.847656 215.03125 194.453125 C 214.671875 194.601562 214.300781 194.671875 213.933594 194.671875 " fill-opacity="1" fill-rule="nonzero"/></svg>